<?xml version="1.0" encoding="UTF-8"?>
<svg id="Capa_1" xmlns="http://www.w3.org/2000/svg" version="1.1" xmlns:xodm="http://www.corel.com/coreldraw/odm/2003" viewBox="0 0 404.37 221.52">
  <!-- Generator: Adobe Illustrator 29.5.1, SVG Export Plug-In . SVG Version: 2.1.0 Build 141)  -->
  <defs>
    <style>
      .st0 {
        fill: #fefefe;
      }

      .st0, .st1, .st2 {
        fill-rule: evenodd;
      }

      .st1 {
        fill: #00dde8;
      }

      .st2 {
        fill: #fdfdfd;
      }
    </style>
  </defs>
  <g id="Capa_x5F_1">
    <g id="_2054301250832">
      <path class="st0" d="M266.48,169.32v31.87h-30.8V19.19h79.56c0,.37,1.28.21,1.67.25.49.05,1.21.15,1.91.24,1.04.14,2.48.38,3.65.63,2.11.45,4.87,1.16,6.86,1.91,8.02,3.01,15.24,7.37,21.26,13.39,1.78,1.78,4.42,5.14,5.9,7.15.67.9,1.21,1.67,1.81,2.68,4.36,7.33,8.3,17.33,8.27,26.59,0,1.52.39,2.32.16,4-.25,1.83-.27,4.84-.76,7.79-1.38,8.22-4.13,15.07-8.62,21.96-.36.55-.52.68-.9,1.24l-2.88,3.75c-1.06,1.3-3.89,4.32-5.29,5.41l-2.3,1.98c-.49.4-.81.66-1.31,1.05-4.67,3.65-11.4,7.11-17.21,8.89-12.41,3.8-26.97,2.54-41.09,2.54h-8.55c-3.66,0-4.86.06-7.15,1.62-6.03,4.11-5.25,13.4,1.34,16.38,2.47,1.12,4.45.82,7.95.82,6.53,0,34.27.31,38.62-.3,11.38-1.61,19.63-3.71,29.69-9.66,8.76-5.18,12.54-8.74,19.11-15.75l3.87-4.9c5.72-7.58,8.59-14.48,11.5-23.36,3.03-9.25,3.47-21.46,2.16-31.3-1.79-13.43-7.83-26.26-15.91-36.27l-3.01-3.41c-1.66-1.79-2.06-2.56-4.36-4.41-.52-.42-.7-.73-1.25-1.1-1.11-1.65-12.47-9.57-14.54-10.05-.23-.2.07,0-.37-.27l-1.41-.73c-.74-.37-1.25-.67-2.01-.99-1.44-.62-2.58-1.14-4.06-1.71-2.85-1.11-5.75-2.06-8.92-2.85-6.64-1.66-12.85-2.22-21.09-2.22h-75.49c-2.79,0-6.79-.31-9.06.35-2.27.66-4.19,2.3-5.31,4.1-.64,1.03-1,2.05-1.66,3.04l-1.93,2.78c-3.13,4.42-4.61,5.6-7.54,8.93-3.3,3.75-7.19,6.98-11.19,9.98-3.31,2.48-8,5.48-11.71,7.32-16.72,8.29-36.37,11.68-55.16,8.04-5.26-1.02-10.25-2.27-14.76-4.06l-9.78-4.34c-2.35-1.16-6.86-3.99-8.81-5.3l-6.65-5.11c-6.58-5.53-11.85-11.68-16.66-18.84-2.21-3.29-4.65-8.09-11.45-6.83-6.04,1.12-9.96,8.41-6.09,14.53,4.33,6.85,8.77,12.85,14.53,18.61,1.53,1.53,3.12,3.3,4.71,4.7l10.53,8.29c2.79,1.98,10.34,6.62,13.26,7.91,7.37,3.25,10.18,4.58,18.96,7.13,20.19,5.87,45.85,4.46,64.94-3.01,6.31-2.47,13.22-5.62,18.88-9.35,3.15-2.07,8.11-5.36,10.94-7.88.89-.8,1.64-1.38,2.56-2.15,1.01-.84,1.47-1.51,2.63-2.29v168.31c0,2.66-.26,5.78.35,7.99,1.27,4.65,4.98,7,9.92,6.98,7.49-.03,48.68.21,50.42-.05.93-.14,2.37-.65,3.19-1.09,1.13-.6,1.52-1.07,2.37-1.91,3.41-3.38,2.62-8.02,2.62-14.49,0-5,.34-32.12-.23-34.64-1.34-5.99-7.9-9.34-13.4-6.57l-2.5,1.77c-1.87,1.88-2.42,3.18-2.91,6.29h0Z"/>
      <path class="st1" d="M80.2,202.47c-10.44,0-17.08-.91-26.09-4.92-5.23-2.33-11.88-6.45-15.88-10.43-1.91-1.9-2.41-1.96-4.81-4.82-5.89-7.02-10.41-14.95-12.64-23.93-.36-1.43-1.08-4.02-1.11-5.52,1.43,0,2.23-.22,3.85-.22l16.47-.21c1.45,0,2.38-.23,4.06-.22,2.83,0,5.62,0,8.14-.2,2.42-.2,5.81-.02,8.34,0l7.97-.37c8.06-1.59,10.77-11.81,3.94-16.9-3.28-2.44-4.97-1.77-9.78-1.77-11.59,0-23.9.66-35.5.64-2.19,0-3.56.22-5.77.22-2.04,0-4.19-.07-6.21,0l-5.78.21c-4.89,0-9.4,4.17-9.4,8.78,0,11.75,1.72,20.11,5.81,30.34,2.84,7.11,8.76,16.89,13.81,22.11l6,5.98c.82.82,1.57,1.48,2.47,2.24l5.49,4.13c1.85,1.32,3.74,2.48,5.76,3.64,18.74,10.8,42.24,13.39,62.81,6.33,3.31-1.14,6.57-2.54,9.49-3.99,4.32-2.14,12.34-7.44,15.88-10.85,2.62-2.52,2.65-2.34,5.02-5.03,1.79-2.03,2.68-2.82,4.64-5.42,8.31-11.02,13.74-24.05,15.48-38.2.88-7.17.68-12.11.68-19.64,0-9.16.22-17.67.22-26.73v-26.95c-1.59.76-13.81.3-16.69.22-1.08-.03-1.07-.22-2.13-.22,0,7.5-.21,14.3-.21,21.81v22.03c0,7.48-.24,14.32-.21,21.82,0,1.59-.27,3.42-.43,4.91-2.32,20.83-15.8,39.49-35.44,47.32-4.75,1.89-11.73,3.79-18.24,3.79h0Z"/>
      <path class="st1" d="M133.03,219.36c10.63,0,18.1-2.49,27.01-6.35.71-.31.84-.49,1.5-.85,6.42-3.47,10.32-6.29,15.38-11.35,2.67-2.67,3.89-4.1,6.15-7.11.66-.88,1.24-1.64,1.88-2.61.63-.96,1.17-1.8,1.74-2.75,4.28-7.16,7.05-13.82,9.12-22.1,1.89-7.54,2.87-15.98,2.87-24.08v-64.16c0-3.53-1.55-6.3-3.64-7.7-3.21,1.7-10.61,4.37-14.26,5.42-1.66.48-1.14,2.44-1.14,5.49v52.61c0,9.77.48,15.16-1.44,25.08-1.42,7.34-3.86,13.79-7.1,19.2-1.98,3.3-5.93,8.5-8.96,10.93l-5.64,4.19c-1.27.85-2.66,3.75-4.1,5.74-4.89,6.72-6.78,8.76-12.26,14.26-.65.65-1.08.86-1.72,1.49l-5.4,4.65h0Z"/>
      <path class="st2" d="M356.73,153.28c.56.84,1.31,1.75,1.92,2.57,3.46,4.61,6.2,8.72,9.19,13.7,1.15,1.92,2.27,3.8,3.36,5.83.57,1.06.92,1.98,1.53,2.96.62,1.01,1.11,1.97,1.6,3.1,2.35,5.51,4.77,10.12,6.75,16.13.36,1.09,1.07,2.38,1.1,3.61h-54.11c-2.68,0-4.64,1.53-6.05,2.94-1.53,1.53-2.6,3.75-2.61,6.47,0,5.12,4.4,9.41,8.87,9.41h67.15c2.17,0,4.48-1.14,5.97-2.59.03-.03.08-.08.11-.1,4.93-4.97,2.37-10.26.46-16.89-.49-1.68-.94-3.09-1.49-4.71-1.58-4.73-3.25-9.25-5.21-13.83-1.31-3.05-2.52-5.74-3.98-8.64-.37-.73-.59-1.32-.97-2.03l-8.01-14.23c-1.25-2.11-9.09-13.86-10.41-14.83l-3.47,2.95c-5.1,4.16-6.74,4.84-11.71,8.18Z"/>
      <path class="st2" d="M266.48,89.12v26.95c.95-.02,1.22-.28,2.37-.62,5.27-1.55,10.88-1.09,16.66-1.09v-13.26c.96.22,2.19.75,3.15,1.13,1.17.47,2.01.85,3.17,1.32l6.08,2.69c4.96,2.5,9.63,4.73,14.36,7.67,1.95,1.21,8.96-.79,10.9-1.44,6.77-2.26,11.15-5.86,11.73-6.01v-.43c-.74-.2-3.16-2.09-3.98-2.65-5.36-3.72-10.81-6.86-16.49-10.03-1.46-.81-2.9-1.46-4.42-2.21-1.54-.77-2.93-1.48-4.42-2.21l-4.74-2.11c-6.64-2.72-12.58-5.19-19.6-7.13-3.26-.9-6.66-2.2-10.4.38-2.76,1.91-4.4,4.51-4.4,9.07h0Z"/>
      <path class="st1" d="M134.95,10.63v18.18c0,.81,1.48.79,3,.85,4.82.2,9.96.46,14.81-.16.72-.09,1.23.07,1.23-.7v-9.84h27.8c1.41,0,7.22-4.86,8.59-5.96l2.59-2.33c1.9-1.83,2.42-2.65,3.41-3.64,1.88-1.89,4.06-4.72,5.51-6.89h-38.71c-6.36,0-12.92-.16-19.25,0-1.28.03-2.76.54-3.71,1-3.4,1.66-5.27,5.12-5.27,9.49h0Z"/>
      <path class="st1" d="M61.38,168.03c.1,1.26,1.66,5.16,2.17,6.39.93,2.25,2.9,6.47,4.21,8.62.49.82.99,2.15,1.79,2.49,1.47.61,6.78.89,8.94.89,3.54,0,10.37-1.04,13.26-2.57l-3.47-4.23c-.62-.75-1-1.46-1.6-2.25-1.68-2.23-6.29-10.82-6.47-12.99-.78.07-3.85,2.09-8.14,2.98-3.2.66-6.84.66-10.68.66h0Z"/>
    </g>
  </g>
</svg>